<svg width="197" height="41" viewBox="0 0 197 41" fill="none" xmlns="http://www.w3.org/2000/svg">
<path d="M49.452 23V6.61H60.474V9.58H52.862V13.298H60.034V16.268H52.862V20.03H60.474V23H49.452ZM62.9791 18.424V15.564H72.8791V18.424H62.9791ZM82.3124 23.264C81.2858 23.264 80.3178 23.0807 79.4084 22.714C78.5138 22.3327 77.7364 21.7973 77.0764 21.108C76.4311 20.4187 75.9471 19.6047 75.6244 18.666L78.4184 17.412C78.8291 18.3067 79.3938 19.0107 80.1124 19.524C80.8458 20.0373 81.6524 20.294 82.5324 20.294C83.0018 20.294 83.4051 20.2207 83.7424 20.074C84.0798 19.9273 84.3438 19.7293 84.5344 19.48C84.7251 19.216 84.8204 18.908 84.8204 18.556C84.8204 18.1747 84.7031 17.852 84.4684 17.588C84.2338 17.3093 83.8671 17.0893 83.3684 16.928L80.1564 15.872C78.8511 15.4467 77.8684 14.8453 77.2084 14.068C76.5484 13.276 76.2184 12.33 76.2184 11.23C76.2184 10.262 76.4531 9.41133 76.9224 8.678C77.4064 7.94467 78.0738 7.37267 78.9244 6.962C79.7898 6.55133 80.7798 6.346 81.8944 6.346C82.8771 6.346 83.7864 6.51467 84.6224 6.852C85.4584 7.18933 86.1771 7.666 86.7784 8.282C87.3944 8.898 87.8564 9.63867 88.1644 10.504L85.3924 11.758C85.0844 10.9953 84.6224 10.4013 84.0064 9.976C83.3904 9.536 82.6864 9.316 81.8944 9.316C81.4398 9.316 81.0364 9.38933 80.6844 9.536C80.3324 9.68267 80.0611 9.89533 79.8704 10.174C79.6798 10.438 79.5844 10.746 79.5844 11.098C79.5844 11.4793 79.7091 11.8167 79.9584 12.11C80.2078 12.3887 80.5818 12.6087 81.0804 12.77L84.2264 13.782C85.5464 14.2073 86.5291 14.8013 87.1744 15.564C87.8344 16.3267 88.1644 17.258 88.1644 18.358C88.1644 19.3113 87.9151 20.162 87.4164 20.91C86.9178 21.6433 86.2284 22.2227 85.3484 22.648C84.4831 23.0587 83.4711 23.264 82.3124 23.264ZM90.3526 23V10.988H93.4326V13.914L93.1026 13.43C93.2786 12.506 93.7039 11.824 94.3786 11.384C95.0532 10.944 95.8599 10.724 96.7986 10.724C97.7959 10.724 98.6686 10.9807 99.4166 11.494C100.179 11.9927 100.656 12.6673 100.847 13.518L99.9006 13.606C100.297 12.6233 100.861 11.8973 101.595 11.428C102.328 10.9587 103.186 10.724 104.169 10.724C105.034 10.724 105.797 10.9147 106.457 11.296C107.131 11.6773 107.659 12.2127 108.041 12.902C108.422 13.5767 108.613 14.3687 108.613 15.278V23H105.313V15.982C105.313 15.5127 105.225 15.1093 105.049 14.772C104.887 14.4347 104.653 14.1707 104.345 13.98C104.037 13.7893 103.663 13.694 103.223 13.694C102.797 13.694 102.423 13.7893 102.101 13.98C101.793 14.1707 101.551 14.4347 101.375 14.772C101.213 15.1093 101.133 15.5127 101.133 15.982V23H97.8326V15.982C97.8326 15.5127 97.7446 15.1093 97.5686 14.772C97.4072 14.4347 97.1726 14.1707 96.8646 13.98C96.5566 13.7893 96.1826 13.694 95.7426 13.694C95.3172 13.694 94.9432 13.7893 94.6206 13.98C94.3126 14.1707 94.0706 14.4347 93.8946 14.772C93.7332 15.1093 93.6526 15.5127 93.6526 15.982V23H90.3526ZM114.502 23.264C113.637 23.264 112.889 23.1247 112.258 22.846C111.628 22.5673 111.144 22.1713 110.806 21.658C110.469 21.13 110.3 20.5067 110.3 19.788C110.3 19.1133 110.454 18.5193 110.762 18.006C111.07 17.478 111.54 17.038 112.17 16.686C112.816 16.334 113.615 16.0847 114.568 15.938L118.242 15.344V17.764L115.162 18.314C114.693 18.402 114.334 18.556 114.084 18.776C113.835 18.9813 113.71 19.282 113.71 19.678C113.71 20.0447 113.85 20.3307 114.128 20.536C114.407 20.7413 114.752 20.844 115.162 20.844C115.705 20.844 116.182 20.7267 116.592 20.492C117.003 20.2573 117.318 19.942 117.538 19.546C117.773 19.1353 117.89 18.688 117.89 18.204V15.08C117.89 14.6253 117.707 14.244 117.34 13.936C116.988 13.628 116.504 13.474 115.888 13.474C115.302 13.474 114.781 13.6353 114.326 13.958C113.886 14.2807 113.564 14.706 113.358 15.234L110.718 13.98C110.953 13.3053 111.327 12.726 111.84 12.242C112.354 11.758 112.97 11.384 113.688 11.12C114.407 10.856 115.192 10.724 116.042 10.724C117.054 10.724 117.949 10.9073 118.726 11.274C119.504 11.6407 120.105 12.154 120.53 12.814C120.97 13.4593 121.19 14.2147 121.19 15.08V23H118.11V21.064L118.858 20.932C118.506 21.46 118.118 21.9 117.692 22.252C117.267 22.5893 116.79 22.8387 116.262 23C115.734 23.176 115.148 23.264 114.502 23.264ZM123.61 23V10.988H126.69V13.87L126.47 13.452C126.734 12.44 127.167 11.758 127.768 11.406C128.384 11.0393 129.11 10.856 129.946 10.856H130.65V13.716H129.616C128.81 13.716 128.157 13.9653 127.658 14.464C127.16 14.948 126.91 15.6373 126.91 16.532V23H123.61ZM138.312 23.132C136.86 23.132 135.731 22.7433 134.924 21.966C134.132 21.174 133.736 20.074 133.736 18.666V13.848H131.712V10.988H131.822C132.438 10.988 132.908 10.834 133.23 10.526C133.568 10.218 133.736 9.756 133.736 9.14V8.26H137.036V10.988H139.852V13.848H137.036V18.446C137.036 18.8567 137.11 19.2013 137.256 19.48C137.403 19.744 137.63 19.942 137.938 20.074C138.246 20.206 138.628 20.272 139.082 20.272C139.185 20.272 139.302 20.2647 139.434 20.25C139.566 20.2353 139.706 20.2207 139.852 20.206V23C139.632 23.0293 139.383 23.0587 139.104 23.088C138.826 23.1173 138.562 23.132 138.312 23.132ZM142.028 23V6.61H153.248V9.58H145.438V13.738H152.148V16.708H145.438V23H142.028ZM160.445 23.264C159.257 23.264 158.172 22.9927 157.189 22.45C156.221 21.9073 155.444 21.1667 154.857 20.228C154.285 19.2747 153.999 18.1967 153.999 16.994C153.999 15.7767 154.285 14.6987 154.857 13.76C155.444 12.8213 156.221 12.0807 157.189 11.538C158.172 10.9953 159.257 10.724 160.445 10.724C161.633 10.724 162.711 10.9953 163.679 11.538C164.647 12.0807 165.417 12.8213 165.989 13.76C166.576 14.6987 166.869 15.7767 166.869 16.994C166.869 18.1967 166.576 19.2747 165.989 20.228C165.417 21.1667 164.647 21.9073 163.679 22.45C162.711 22.9927 161.633 23.264 160.445 23.264ZM160.445 20.294C161.047 20.294 161.567 20.1547 162.007 19.876C162.462 19.5973 162.814 19.2087 163.063 18.71C163.327 18.2113 163.459 17.6393 163.459 16.994C163.459 16.3487 163.327 15.784 163.063 15.3C162.814 14.8013 162.462 14.4127 162.007 14.134C161.567 13.8407 161.047 13.694 160.445 13.694C159.844 13.694 159.316 13.8407 158.861 14.134C158.407 14.4127 158.047 14.8013 157.783 15.3C157.534 15.784 157.409 16.3487 157.409 16.994C157.409 17.6393 157.534 18.2113 157.783 18.71C158.047 19.2087 158.407 19.5973 158.861 19.876C159.316 20.1547 159.844 20.294 160.445 20.294ZM168.814 23V10.988H171.894V13.87L171.674 13.452C171.938 12.44 172.37 11.758 172.972 11.406C173.588 11.0393 174.314 10.856 175.15 10.856H175.854V13.716H174.82C174.013 13.716 173.36 13.9653 172.862 14.464C172.363 14.948 172.114 15.6373 172.114 16.532V23H168.814ZM177.3 23V10.988H180.38V13.914L180.05 13.43C180.226 12.506 180.651 11.824 181.326 11.384C182.001 10.944 182.807 10.724 183.746 10.724C184.743 10.724 185.616 10.9807 186.364 11.494C187.127 11.9927 187.603 12.6673 187.794 13.518L186.848 13.606C187.244 12.6233 187.809 11.8973 188.542 11.428C189.275 10.9587 190.133 10.724 191.116 10.724C191.981 10.724 192.744 10.9147 193.404 11.296C194.079 11.6773 194.607 12.2127 194.988 12.902C195.369 13.5767 195.56 14.3687 195.56 15.278V23H192.26V15.982C192.26 15.5127 192.172 15.1093 191.996 14.772C191.835 14.4347 191.6 14.1707 191.292 13.98C190.984 13.7893 190.61 13.694 190.17 13.694C189.745 13.694 189.371 13.7893 189.048 13.98C188.74 14.1707 188.498 14.4347 188.322 14.772C188.161 15.1093 188.08 15.5127 188.08 15.982V23H184.78V15.982C184.78 15.5127 184.692 15.1093 184.516 14.772C184.355 14.4347 184.12 14.1707 183.812 13.98C183.504 13.7893 183.13 13.694 182.69 13.694C182.265 13.694 181.891 13.7893 181.568 13.98C181.26 14.1707 181.018 14.4347 180.842 14.772C180.681 15.1093 180.6 15.5127 180.6 15.982V23H177.3Z" fill="#11142D"/>
<path d="M49.77 38V30.55H52.21C52.9833 30.55 53.6533 30.7067 54.22 31.02C54.7933 31.3267 55.2367 31.76 55.55 32.32C55.8633 32.88 56.02 33.53 56.02 34.27C56.02 35.0033 55.8633 35.6533 55.55 36.22C55.2367 36.78 54.7933 37.2167 54.22 37.53C53.6533 37.8433 52.9833 38 52.21 38H49.77ZM50.95 36.95H52.23C52.7567 36.95 53.2133 36.84 53.6 36.62C53.9933 36.4 54.2967 36.09 54.51 35.69C54.7233 35.29 54.83 34.8167 54.83 34.27C54.83 33.7233 54.72 33.2533 54.5 32.86C54.2867 32.46 53.9867 32.15 53.6 31.93C53.2133 31.71 52.7567 31.6 52.23 31.6H50.95V36.95ZM57.5521 40.21C57.4188 40.21 57.2854 40.1967 57.1521 40.17C57.0254 40.15 56.9088 40.1167 56.8021 40.07V39.1C56.8821 39.12 56.9788 39.1367 57.0921 39.15C57.2054 39.17 57.3154 39.18 57.4221 39.18C57.7354 39.18 57.9654 39.11 58.1121 38.97C58.2654 38.8367 58.4021 38.6267 58.5221 38.34L58.8821 37.52L58.8621 38.47L56.5221 32.59H57.7321L59.4621 37.1H59.0521L60.7721 32.59H61.9921L59.6021 38.59C59.4754 38.91 59.3154 39.19 59.1221 39.43C58.9354 39.6767 58.7121 39.8667 58.4521 40C58.1988 40.14 57.8988 40.21 57.5521 40.21ZM62.7655 38V32.59H63.8455V33.65L63.7155 33.51C63.8488 33.17 64.0621 32.9133 64.3555 32.74C64.6488 32.56 64.9888 32.47 65.3755 32.47C65.7755 32.47 66.1288 32.5567 66.4355 32.73C66.7421 32.9033 66.9821 33.1433 67.1555 33.45C67.3288 33.7567 67.4155 34.11 67.4155 34.51V38H66.2955V34.81C66.2955 34.5367 66.2455 34.3067 66.1455 34.12C66.0455 33.9267 65.9021 33.78 65.7155 33.68C65.5355 33.5733 65.3288 33.52 65.0955 33.52C64.8621 33.52 64.6521 33.5733 64.4655 33.68C64.2855 33.78 64.1455 33.9267 64.0455 34.12C63.9455 34.3133 63.8955 34.5433 63.8955 34.81V38H62.7655ZM70.2448 38.12C69.8782 38.12 69.5548 38.0567 69.2748 37.93C69.0015 37.7967 68.7882 37.6167 68.6348 37.39C68.4815 37.1567 68.4048 36.8833 68.4048 36.57C68.4048 36.2767 68.4682 36.0133 68.5948 35.78C68.7282 35.5467 68.9315 35.35 69.2048 35.19C69.4782 35.03 69.8215 34.9167 70.2348 34.85L72.1148 34.54V35.43L70.4548 35.72C70.1548 35.7733 69.9348 35.87 69.7948 36.01C69.6548 36.1433 69.5848 36.3167 69.5848 36.53C69.5848 36.7367 69.6615 36.9067 69.8148 37.04C69.9748 37.1667 70.1782 37.23 70.4248 37.23C70.7315 37.23 70.9982 37.1633 71.2248 37.03C71.4582 36.8967 71.6382 36.72 71.7648 36.5C71.8915 36.2733 71.9548 36.0233 71.9548 35.75V34.36C71.9548 34.0933 71.8548 33.8767 71.6548 33.71C71.4615 33.5367 71.2015 33.45 70.8748 33.45C70.5748 33.45 70.3115 33.53 70.0848 33.69C69.8648 33.8433 69.7015 34.0433 69.5948 34.29L68.6548 33.82C68.7548 33.5533 68.9182 33.32 69.1448 33.12C69.3715 32.9133 69.6348 32.7533 69.9348 32.64C70.2415 32.5267 70.5648 32.47 70.9048 32.47C71.3315 32.47 71.7082 32.55 72.0348 32.71C72.3682 32.87 72.6248 33.0933 72.8048 33.38C72.9915 33.66 73.0848 33.9867 73.0848 34.36V38H72.0048V37.02L72.2348 37.05C72.1082 37.27 71.9448 37.46 71.7448 37.62C71.5515 37.78 71.3282 37.9033 71.0748 37.99C70.8282 38.0767 70.5515 38.12 70.2448 38.12ZM74.4061 38V32.59H75.4861V33.76L75.3461 33.58C75.4594 33.2133 75.6661 32.9367 75.9661 32.75C76.2661 32.5633 76.6094 32.47 76.9961 32.47C77.4294 32.47 77.8128 32.5867 78.1461 32.82C78.4861 33.0467 78.7128 33.35 78.8261 33.73L78.5061 33.76C78.6661 33.3267 78.9094 33.0033 79.2361 32.79C79.5694 32.5767 79.9494 32.47 80.3761 32.47C80.7494 32.47 81.0861 32.5567 81.3861 32.73C81.6928 32.9033 81.9361 33.1433 82.1161 33.45C82.2961 33.7567 82.3861 34.1067 82.3861 34.5V38H81.2561V34.81C81.2561 34.5367 81.2061 34.3067 81.1061 34.12C81.0128 33.9267 80.8794 33.78 80.7061 33.68C80.5394 33.5733 80.3428 33.52 80.1161 33.52C79.8894 33.52 79.6894 33.5733 79.5161 33.68C79.3428 33.78 79.2061 33.9267 79.1061 34.12C79.0061 34.3133 78.9561 34.5433 78.9561 34.81V38H77.8361V34.81C77.8361 34.5367 77.7861 34.3067 77.6861 34.12C77.5928 33.9267 77.4594 33.78 77.2861 33.68C77.1194 33.5733 76.9194 33.52 76.6861 33.52C76.4594 33.52 76.2594 33.5733 76.0861 33.68C75.9128 33.78 75.7761 33.9267 75.6761 34.12C75.5828 34.3133 75.5361 34.5433 75.5361 34.81V38H74.4061ZM83.5955 38V32.59H84.7255V38H83.5955ZM83.5955 31.85V30.55H84.7255V31.85H83.5955ZM88.6167 38.12C88.0767 38.12 87.5967 37.9967 87.1767 37.75C86.7634 37.4967 86.4334 37.1567 86.1867 36.73C85.9467 36.3033 85.8267 35.82 85.8267 35.28C85.8267 34.7467 85.9467 34.2667 86.1867 33.84C86.4267 33.4133 86.7567 33.08 87.1767 32.84C87.5967 32.5933 88.0767 32.47 88.6167 32.47C88.9834 32.47 89.3267 32.5367 89.6467 32.67C89.9667 32.7967 90.2434 32.9733 90.4767 33.2C90.7167 33.4267 90.8934 33.69 91.0067 33.99L90.0167 34.45C89.9034 34.17 89.7201 33.9467 89.4667 33.78C89.2201 33.6067 88.9367 33.52 88.6167 33.52C88.3101 33.52 88.0334 33.5967 87.7867 33.75C87.5467 33.8967 87.3567 34.1067 87.2167 34.38C87.0767 34.6467 87.0067 34.95 87.0067 35.29C87.0067 35.63 87.0767 35.9367 87.2167 36.21C87.3567 36.4767 87.5467 36.6867 87.7867 36.84C88.0334 36.9933 88.3101 37.07 88.6167 37.07C88.9434 37.07 89.2267 36.9867 89.4667 36.82C89.7134 36.6467 89.8967 36.4167 90.0167 36.13L91.0067 36.6C90.9001 36.8867 90.7267 37.1467 90.4867 37.38C90.2534 37.6067 89.9767 37.7867 89.6567 37.92C89.3367 38.0533 88.9901 38.12 88.6167 38.12ZM93.9692 38V30.55H98.8192V31.6H95.1492V33.84H98.4192V34.89H95.1492V38H93.9692ZM102.163 38.12C101.643 38.12 101.166 37.9967 100.733 37.75C100.306 37.5033 99.9659 37.1667 99.7126 36.74C99.4592 36.3133 99.3326 35.83 99.3326 35.29C99.3326 34.7433 99.4592 34.26 99.7126 33.84C99.9659 33.4133 100.306 33.08 100.733 32.84C101.159 32.5933 101.636 32.47 102.163 32.47C102.696 32.47 103.173 32.5933 103.593 32.84C104.019 33.08 104.356 33.4133 104.603 33.84C104.856 34.26 104.983 34.7433 104.983 35.29C104.983 35.8367 104.856 36.3233 104.603 36.75C104.349 37.1767 104.009 37.5133 103.583 37.76C103.156 38 102.683 38.12 102.163 38.12ZM102.163 37.07C102.483 37.07 102.766 36.9933 103.013 36.84C103.259 36.6867 103.453 36.4767 103.593 36.21C103.739 35.9367 103.813 35.63 103.813 35.29C103.813 34.95 103.739 34.6467 103.593 34.38C103.453 34.1133 103.259 33.9033 103.013 33.75C102.766 33.5967 102.483 33.52 102.163 33.52C101.849 33.52 101.566 33.5967 101.313 33.75C101.066 33.9033 100.869 34.1133 100.723 34.38C100.583 34.6467 100.513 34.95 100.513 35.29C100.513 35.63 100.583 35.9367 100.723 36.21C100.869 36.4767 101.066 36.6867 101.313 36.84C101.566 36.9933 101.849 37.07 102.163 37.07ZM106.086 38V32.59H107.166V33.68L107.066 33.52C107.186 33.1667 107.379 32.9133 107.646 32.76C107.912 32.6 108.232 32.52 108.606 32.52H108.936V33.55H108.466C108.092 33.55 107.789 33.6667 107.556 33.9C107.329 34.1267 107.216 34.4533 107.216 34.88V38H106.086ZM109.709 38V32.59H110.789V33.76L110.649 33.58C110.762 33.2133 110.969 32.9367 111.269 32.75C111.569 32.5633 111.912 32.47 112.299 32.47C112.732 32.47 113.115 32.5867 113.449 32.82C113.789 33.0467 114.015 33.35 114.129 33.73L113.809 33.76C113.969 33.3267 114.212 33.0033 114.539 32.79C114.872 32.5767 115.252 32.47 115.679 32.47C116.052 32.47 116.389 32.5567 116.689 32.73C116.995 32.9033 117.239 33.1433 117.419 33.45C117.599 33.7567 117.689 34.1067 117.689 34.5V38H116.559V34.81C116.559 34.5367 116.509 34.3067 116.409 34.12C116.315 33.9267 116.182 33.78 116.009 33.68C115.842 33.5733 115.645 33.52 115.419 33.52C115.192 33.52 114.992 33.5733 114.819 33.68C114.645 33.78 114.509 33.9267 114.409 34.12C114.309 34.3133 114.259 34.5433 114.259 34.81V38H113.139V34.81C113.139 34.5367 113.089 34.3067 112.989 34.12C112.895 33.9267 112.762 33.78 112.589 33.68C112.422 33.5733 112.222 33.52 111.989 33.52C111.762 33.52 111.562 33.5733 111.389 33.68C111.215 33.78 111.079 33.9267 110.979 34.12C110.885 34.3133 110.839 34.5433 110.839 34.81V38H109.709ZM123.536 38.12C123.116 38.12 122.733 38.0333 122.386 37.86C122.046 37.6867 121.783 37.4367 121.596 37.11L121.726 36.9V38H120.646V30.43H121.776V33.71L121.596 33.45C121.796 33.1433 122.063 32.9033 122.396 32.73C122.73 32.5567 123.11 32.47 123.536 32.47C124.05 32.47 124.51 32.5933 124.916 32.84C125.33 33.0867 125.653 33.4233 125.886 33.85C126.126 34.2767 126.246 34.7567 126.246 35.29C126.246 35.8233 126.126 36.3033 125.886 36.73C125.653 37.1567 125.333 37.4967 124.926 37.75C124.52 37.9967 124.056 38.12 123.536 38.12ZM123.426 37.07C123.746 37.07 124.03 36.9933 124.276 36.84C124.523 36.6867 124.716 36.4767 124.856 36.21C125.003 35.9367 125.076 35.63 125.076 35.29C125.076 34.95 125.003 34.6467 124.856 34.38C124.716 34.1133 124.523 33.9033 124.276 33.75C124.03 33.5967 123.746 33.52 123.426 33.52C123.113 33.52 122.83 33.5967 122.576 33.75C122.33 33.9033 122.133 34.1133 121.986 34.38C121.846 34.6467 121.776 34.95 121.776 35.29C121.776 35.63 121.846 35.9367 121.986 36.21C122.133 36.4767 122.33 36.6867 122.576 36.84C122.83 36.9933 123.113 37.07 123.426 37.07ZM127.728 40.21C127.595 40.21 127.461 40.1967 127.328 40.17C127.201 40.15 127.085 40.1167 126.978 40.07V39.1C127.058 39.12 127.155 39.1367 127.268 39.15C127.381 39.17 127.491 39.18 127.598 39.18C127.911 39.18 128.141 39.11 128.288 38.97C128.441 38.8367 128.578 38.6267 128.698 38.34L129.058 37.52L129.038 38.47L126.698 32.59H127.908L129.638 37.1H129.228L130.948 32.59H132.168L129.778 38.59C129.651 38.91 129.491 39.19 129.298 39.43C129.111 39.6767 128.888 39.8667 128.628 40C128.375 40.14 128.075 40.21 127.728 40.21Z" fill="#828282"/>
<path d="M134.799 38V30.55H139.709V31.6H135.979V33.74H139.509V34.79H135.979V36.95H139.709V38H134.799ZM140.865 35.79V34.79H144.865V35.79H140.865ZM146.469 38V30.55H149.179C149.679 30.55 150.119 30.6433 150.499 30.83C150.879 31.01 151.176 31.2767 151.389 31.63C151.609 31.9767 151.719 32.3933 151.719 32.88C151.719 33.3933 151.589 33.8333 151.329 34.2C151.076 34.5667 150.733 34.8333 150.299 35L152.019 38H150.679L148.849 34.75L149.619 35.2H147.649V38H146.469ZM147.649 34.15H149.199C149.473 34.15 149.709 34.0967 149.909 33.99C150.109 33.8833 150.263 33.7367 150.369 33.55C150.483 33.3567 150.539 33.13 150.539 32.87C150.539 32.61 150.483 32.3867 150.369 32.2C150.263 32.0067 150.109 31.86 149.909 31.76C149.709 31.6533 149.473 31.6 149.199 31.6H147.649V34.15ZM154.522 38.12C154.156 38.12 153.832 38.0567 153.552 37.93C153.279 37.7967 153.066 37.6167 152.912 37.39C152.759 37.1567 152.682 36.8833 152.682 36.57C152.682 36.2767 152.746 36.0133 152.872 35.78C153.006 35.5467 153.209 35.35 153.482 35.19C153.756 35.03 154.099 34.9167 154.512 34.85L156.392 34.54V35.43L154.732 35.72C154.432 35.7733 154.212 35.87 154.072 36.01C153.932 36.1433 153.862 36.3167 153.862 36.53C153.862 36.7367 153.939 36.9067 154.092 37.04C154.252 37.1667 154.456 37.23 154.702 37.23C155.009 37.23 155.276 37.1633 155.502 37.03C155.736 36.8967 155.916 36.72 156.042 36.5C156.169 36.2733 156.232 36.0233 156.232 35.75V34.36C156.232 34.0933 156.132 33.8767 155.932 33.71C155.739 33.5367 155.479 33.45 155.152 33.45C154.852 33.45 154.589 33.53 154.362 33.69C154.142 33.8433 153.979 34.0433 153.872 34.29L152.932 33.82C153.032 33.5533 153.196 33.32 153.422 33.12C153.649 32.9133 153.912 32.7533 154.212 32.64C154.519 32.5267 154.842 32.47 155.182 32.47C155.609 32.47 155.986 32.55 156.312 32.71C156.646 32.87 156.902 33.0933 157.082 33.38C157.269 33.66 157.362 33.9867 157.362 34.36V38H156.282V37.02L156.512 37.05C156.386 37.27 156.222 37.46 156.022 37.62C155.829 37.78 155.606 37.9033 155.352 37.99C155.106 38.0767 154.829 38.12 154.522 38.12ZM158.683 38V32.59H159.763V33.65L159.633 33.51C159.767 33.17 159.98 32.9133 160.273 32.74C160.567 32.56 160.907 32.47 161.293 32.47C161.693 32.47 162.047 32.5567 162.353 32.73C162.66 32.9033 162.9 33.1433 163.073 33.45C163.247 33.7567 163.333 34.11 163.333 34.51V38H162.213V34.81C162.213 34.5367 162.163 34.3067 162.063 34.12C161.963 33.9267 161.82 33.78 161.633 33.68C161.453 33.5733 161.247 33.52 161.013 33.52C160.78 33.52 160.57 33.5733 160.383 33.68C160.203 33.78 160.063 33.9267 159.963 34.12C159.863 34.3133 159.813 34.5433 159.813 34.81V38H158.683ZM167.153 40.2C166.759 40.2 166.396 40.1367 166.063 40.01C165.729 39.8833 165.443 39.7067 165.203 39.48C164.963 39.26 164.783 39 164.663 38.7L165.703 38.27C165.796 38.5233 165.966 38.7333 166.213 38.9C166.466 39.0667 166.776 39.15 167.143 39.15C167.429 39.15 167.686 39.0933 167.913 38.98C168.139 38.8733 168.319 38.7133 168.453 38.5C168.586 38.2933 168.653 38.0433 168.653 37.75V36.53L168.853 36.76C168.666 37.1067 168.406 37.37 168.073 37.55C167.746 37.73 167.376 37.82 166.963 37.82C166.463 37.82 166.013 37.7033 165.613 37.47C165.213 37.2367 164.896 36.9167 164.663 36.51C164.436 36.1033 164.323 35.6467 164.323 35.14C164.323 34.6267 164.436 34.17 164.663 33.77C164.896 33.37 165.209 33.0533 165.603 32.82C165.996 32.5867 166.446 32.47 166.953 32.47C167.366 32.47 167.733 32.56 168.053 32.74C168.379 32.9133 168.646 33.1667 168.853 33.5L168.703 33.78V32.59H169.773V37.75C169.773 38.2167 169.659 38.6333 169.433 39C169.213 39.3733 168.906 39.6667 168.513 39.88C168.119 40.0933 167.666 40.2 167.153 40.2ZM167.093 36.77C167.393 36.77 167.659 36.7 167.893 36.56C168.126 36.4133 168.309 36.22 168.443 35.98C168.583 35.7333 168.653 35.4567 168.653 35.15C168.653 34.8433 168.583 34.5667 168.443 34.32C168.303 34.0733 168.116 33.88 167.883 33.74C167.649 33.5933 167.386 33.52 167.093 33.52C166.786 33.52 166.513 33.5933 166.273 33.74C166.033 33.88 165.843 34.0733 165.703 34.32C165.569 34.56 165.503 34.8367 165.503 35.15C165.503 35.45 165.569 35.7233 165.703 35.97C165.843 36.2167 166.033 36.4133 166.273 36.56C166.513 36.7 166.786 36.77 167.093 36.77ZM173.636 38.12C173.096 38.12 172.616 37.9967 172.196 37.75C171.782 37.4967 171.459 37.1567 171.226 36.73C170.992 36.2967 170.876 35.8133 170.876 35.28C170.876 34.7333 170.992 34.25 171.226 33.83C171.466 33.41 171.786 33.08 172.186 32.84C172.586 32.5933 173.039 32.47 173.546 32.47C173.952 32.47 174.316 32.54 174.636 32.68C174.956 32.82 175.226 33.0133 175.446 33.26C175.666 33.5 175.832 33.7767 175.946 34.09C176.066 34.4033 176.126 34.7367 176.126 35.09C176.126 35.1767 176.122 35.2667 176.116 35.36C176.109 35.4533 176.096 35.54 176.076 35.62H171.766V34.72H175.436L174.896 35.13C174.962 34.8033 174.939 34.5133 174.826 34.26C174.719 34 174.552 33.7967 174.326 33.65C174.106 33.4967 173.846 33.42 173.546 33.42C173.246 33.42 172.979 33.4967 172.746 33.65C172.512 33.7967 172.332 34.01 172.206 34.29C172.079 34.5633 172.029 34.8967 172.056 35.29C172.022 35.6567 172.072 35.9767 172.206 36.25C172.346 36.5233 172.539 36.7367 172.786 36.89C173.039 37.0433 173.326 37.12 173.646 37.12C173.972 37.12 174.249 37.0467 174.476 36.9C174.709 36.7533 174.892 36.5633 175.026 36.33L175.946 36.78C175.839 37.0333 175.672 37.2633 175.446 37.47C175.226 37.67 174.959 37.83 174.646 37.95C174.339 38.0633 174.002 38.12 173.636 38.12ZM177.228 38V32.59H178.308V33.68L178.208 33.52C178.328 33.1667 178.522 32.9133 178.788 32.76C179.055 32.6 179.375 32.52 179.748 32.52H180.078V33.55H179.608C179.235 33.55 178.932 33.6667 178.698 33.9C178.472 34.1267 178.358 34.4533 178.358 34.88V38H177.228Z" fill="#615DFF"/>
<path opacity="0.5" d="M0.333252 21.5C0.333252 12.3077 0.333252 7.71155 3.18805 4.8548C6.04675 2 10.641 2 19.8333 2C29.0256 2 33.6217 2 36.4765 4.8548C39.3333 7.7135 39.3333 12.3077 39.3333 21.5C39.3333 30.6923 39.3333 35.2885 36.4765 38.1433C33.6237 41 29.0256 41 19.8333 41C10.641 41 6.0448 41 3.18805 38.1433C0.333252 35.2904 0.333252 30.6923 0.333252 21.5Z" fill="#615DFF"/>
<path d="M3.19 38.1432C6.0448 41 10.641 41 19.8333 41C29.0275 41 33.6237 41 36.4785 38.1432C39.1246 35.4971 39.3196 31.3572 39.3333 23.45H33.1713C31.4065 23.45 30.5232 23.45 29.749 23.8068C28.9729 24.1637 28.3977 24.8345 27.2491 26.1741L26.0694 27.5508C24.9189 28.8905 24.3456 29.5613 23.5695 29.9181C22.7934 30.275 21.912 30.275 20.1472 30.275H19.5213C17.7565 30.275 16.8732 30.275 16.0971 29.9181C15.3229 29.5613 14.7477 28.8905 13.5991 27.5508L12.4174 26.1741C11.2689 24.8345 10.6956 24.1637 9.91945 23.8068C9.14335 23.45 8.26195 23.45 6.49525 23.45H0.333252C0.346902 31.3572 0.541902 35.4971 3.19 38.1432ZM12.0333 10.2875C11.6454 10.2875 11.2734 10.4416 10.9991 10.7158C10.7248 10.9901 10.5708 11.3621 10.5708 11.75C10.5708 12.1379 10.7248 12.5098 10.9991 12.7841C11.2734 13.0584 11.6454 13.2125 12.0333 13.2125H27.6333C28.0211 13.2125 28.3931 13.0584 28.6674 12.7841C28.9417 12.5098 29.0958 12.1379 29.0958 11.75C29.0958 11.3621 28.9417 10.9901 28.6674 10.7158C28.3931 10.4416 28.0211 10.2875 27.6333 10.2875H12.0333ZM15.9333 17.1125C15.5454 17.1125 15.1734 17.2666 14.8991 17.5408C14.6248 17.8151 14.4708 18.1871 14.4708 18.575C14.4708 18.9629 14.6248 19.3348 14.8991 19.6091C15.1734 19.8834 15.5454 20.0375 15.9333 20.0375H23.7333C24.1211 20.0375 24.4931 19.8834 24.7674 19.6091C25.0417 19.3348 25.1958 18.9629 25.1958 18.575C25.1958 18.1871 25.0417 17.8151 24.7674 17.5408C24.4931 17.2666 24.1211 17.1125 23.7333 17.1125H15.9333Z" fill="#615DFF"/>
</svg>
