<svg width="188" height="39" viewBox="0 0 188 39" fill="none" xmlns="http://www.w3.org/2000/svg">
<path d="M49.6499 30V11.375H56.7749C58.0582 11.375 59.1915 11.6 60.1749 12.05C61.1749 12.5 61.9582 13.1667 62.5249 14.05C63.0915 14.9333 63.3749 16.025 63.3749 17.325C63.3749 18.5917 63.0832 19.675 62.4999 20.575C61.9165 21.4583 61.1332 22.125 60.1499 22.575L64.3999 30H60.0499L55.4499 21.775L57.9499 23.25H53.5249V30H49.6499ZM53.5249 19.875H56.7999C57.3499 19.875 57.8249 19.7667 58.2249 19.55C58.6249 19.3333 58.9332 19.0333 59.1499 18.65C59.3832 18.2667 59.4999 17.825 59.4999 17.325C59.4999 16.8083 59.3832 16.3583 59.1499 15.975C58.9332 15.5917 58.6249 15.2917 58.2249 15.075C57.8249 14.8583 57.3499 14.75 56.7999 14.75H53.5249V19.875ZM70.2747 30.3C69.2913 30.3 68.4413 30.1417 67.7247 29.825C67.008 29.5083 66.458 29.0583 66.0747 28.475C65.6913 27.875 65.4997 27.1667 65.4997 26.35C65.4997 25.5833 65.6747 24.9083 66.0247 24.325C66.3747 23.725 66.908 23.225 67.6247 22.825C68.358 22.425 69.2663 22.1417 70.3497 21.975L74.5247 21.3V24.05L71.0247 24.675C70.4913 24.775 70.083 24.95 69.7997 25.2C69.5163 25.4333 69.3747 25.775 69.3747 26.225C69.3747 26.6417 69.533 26.9667 69.8497 27.2C70.1663 27.4333 70.558 27.55 71.0247 27.55C71.6413 27.55 72.183 27.4167 72.6497 27.15C73.1163 26.8833 73.4747 26.525 73.7247 26.075C73.9913 25.6083 74.1247 25.1 74.1247 24.55V21C74.1247 20.4833 73.9163 20.05 73.4997 19.7C73.0997 19.35 72.5497 19.175 71.8497 19.175C71.183 19.175 70.5913 19.3583 70.0747 19.725C69.5747 20.0917 69.208 20.575 68.9747 21.175L65.9747 19.75C66.2413 18.9833 66.6663 18.325 67.2497 17.775C67.833 17.225 68.533 16.8 69.3497 16.5C70.1663 16.2 71.058 16.05 72.0247 16.05C73.1747 16.05 74.1913 16.2583 75.0747 16.675C75.958 17.0917 76.6413 17.675 77.1247 18.425C77.6247 19.1583 77.8747 20.0167 77.8747 21V30H74.3747V27.8L75.2247 27.65C74.8247 28.25 74.383 28.75 73.8997 29.15C73.4163 29.5333 72.8747 29.8167 72.2747 30C71.6747 30.2 71.008 30.3 70.2747 30.3ZM80.6249 30V16.35H84.1249V19.05L83.9249 18.45C84.2415 17.6333 84.7499 17.0333 85.4499 16.65C86.1665 16.25 86.9999 16.05 87.9499 16.05C88.9832 16.05 89.8832 16.2667 90.6499 16.7C91.4332 17.1333 92.0415 17.7417 92.4749 18.525C92.9082 19.2917 93.1249 20.1917 93.1249 21.225V30H89.3749V22.025C89.3749 21.4917 89.2665 21.0333 89.0499 20.65C88.8499 20.2667 88.5582 19.9667 88.1749 19.75C87.8082 19.5333 87.3749 19.425 86.8749 19.425C86.3915 19.425 85.9582 19.5333 85.5749 19.75C85.1915 19.9667 84.8915 20.2667 84.6749 20.65C84.4749 21.0333 84.3749 21.4917 84.3749 22.025V30H80.6249ZM102.291 35.5C101.241 35.5 100.266 35.325 99.3657 34.975C98.4657 34.625 97.6907 34.1333 97.0407 33.5C96.4074 32.8833 95.949 32.15 95.6657 31.3L99.1407 30.075C99.324 30.7083 99.699 31.2083 100.266 31.575C100.832 31.9417 101.507 32.125 102.291 32.125C102.907 32.125 103.441 32.0083 103.891 31.775C104.341 31.5583 104.682 31.2333 104.916 30.8C105.166 30.3667 105.291 29.8583 105.291 29.275V26.15L106.016 27.05C105.549 27.8167 104.949 28.3917 104.216 28.775C103.482 29.1417 102.624 29.325 101.641 29.325C100.374 29.325 99.2407 29.0417 98.2407 28.475C97.2407 27.8917 96.4574 27.1 95.8907 26.1C95.324 25.0833 95.0407 23.9333 95.0407 22.65C95.0407 21.3667 95.324 20.2333 95.8907 19.25C96.4574 18.25 97.2324 17.4667 98.2157 16.9C99.199 16.3333 100.316 16.05 101.566 16.05C102.549 16.05 103.407 16.25 104.141 16.65C104.874 17.0333 105.499 17.625 106.016 18.425L105.541 19.325V16.35H109.041V29.275C109.041 30.475 108.749 31.5417 108.166 32.475C107.582 33.425 106.782 34.1667 105.766 34.7C104.766 35.2333 103.607 35.5 102.291 35.5ZM102.166 25.925C102.799 25.925 103.349 25.7917 103.816 25.525C104.282 25.2583 104.641 24.8833 104.891 24.4C105.157 23.9167 105.291 23.35 105.291 22.7C105.291 22.05 105.157 21.4833 104.891 21C104.624 20.5 104.257 20.1167 103.791 19.85C103.324 19.5667 102.782 19.425 102.166 19.425C101.532 19.425 100.966 19.5667 100.466 19.85C99.9824 20.1167 99.599 20.5 99.3157 21C99.049 21.4833 98.9157 22.05 98.9157 22.7C98.9157 23.3333 99.049 23.8917 99.3157 24.375C99.599 24.8583 99.9824 25.2417 100.466 25.525C100.966 25.7917 101.532 25.925 102.166 25.925ZM118.377 30.3C116.927 30.3 115.668 29.9833 114.602 29.35C113.535 28.7 112.71 27.8333 112.127 26.75C111.543 25.6667 111.252 24.4667 111.252 23.15C111.252 21.7833 111.552 20.5667 112.152 19.5C112.768 18.4333 113.593 17.5917 114.627 16.975C115.66 16.3583 116.827 16.05 118.127 16.05C119.21 16.05 120.168 16.225 121.002 16.575C121.835 16.9083 122.535 17.3833 123.102 18C123.685 18.6167 124.127 19.3333 124.427 20.15C124.727 20.95 124.877 21.825 124.877 22.775C124.877 23.0417 124.86 23.3083 124.827 23.575C124.81 23.825 124.768 24.0417 124.702 24.225H114.477V21.475H122.577L120.802 22.775C120.968 22.0583 120.96 21.425 120.777 20.875C120.593 20.3083 120.268 19.8667 119.802 19.55C119.352 19.2167 118.793 19.05 118.127 19.05C117.477 19.05 116.918 19.2083 116.452 19.525C115.985 19.8417 115.635 20.3083 115.402 20.925C115.168 21.5417 115.077 22.2917 115.127 23.175C115.06 23.9417 115.152 24.6167 115.402 25.2C115.652 25.7833 116.035 26.2417 116.552 26.575C117.068 26.8917 117.693 27.05 118.427 27.05C119.093 27.05 119.66 26.9167 120.127 26.65C120.61 26.3833 120.985 26.0167 121.252 25.55L124.252 26.975C123.985 27.6417 123.56 28.225 122.977 28.725C122.41 29.225 121.735 29.6167 120.952 29.9C120.168 30.1667 119.31 30.3 118.377 30.3ZM127.085 30V16.35H130.585V19.625L130.335 19.15C130.635 18 131.127 17.225 131.81 16.825C132.51 16.4083 133.335 16.2 134.285 16.2H135.085V19.45H133.91C132.993 19.45 132.252 19.7333 131.685 20.3C131.118 20.85 130.835 21.6333 130.835 22.65V30H127.085ZM145.853 30.3C144.52 30.3 143.278 30.0583 142.128 29.575C140.995 29.0917 140.003 28.4167 139.153 27.55C138.303 26.6833 137.637 25.6667 137.153 24.5C136.687 23.3333 136.453 22.0583 136.453 20.675C136.453 19.2917 136.687 18.0167 137.153 16.85C137.62 15.6667 138.278 14.65 139.128 13.8C139.978 12.9333 140.97 12.2667 142.103 11.8C143.253 11.3167 144.503 11.075 145.853 11.075C147.203 11.075 148.412 11.3 149.478 11.75C150.562 12.2 151.478 12.8 152.228 13.55C152.978 14.3 153.512 15.1333 153.828 16.05L150.403 17.7C150.087 16.8 149.528 16.0583 148.728 15.475C147.945 14.875 146.987 14.575 145.853 14.575C144.753 14.575 143.787 14.8333 142.953 15.35C142.12 15.8667 141.47 16.5833 141.003 17.5C140.553 18.4 140.328 19.4583 140.328 20.675C140.328 21.8917 140.553 22.9583 141.003 23.875C141.47 24.7917 142.12 25.5083 142.953 26.025C143.787 26.5417 144.753 26.8 145.853 26.8C146.987 26.8 147.945 26.5083 148.728 25.925C149.528 25.325 150.087 24.575 150.403 23.675L153.828 25.325C153.512 26.2417 152.978 27.075 152.228 27.825C151.478 28.575 150.562 29.175 149.478 29.625C148.412 30.075 147.203 30.3 145.853 30.3ZM156.315 30V11.375H160.19V30H156.315ZM163.493 30V11.375H167.368V26.625H175.243V30H163.493ZM179.025 30V14.75H174.3V11.375H187.55V14.75H182.9V30H179.025Z" fill="#11142D"/>
<path opacity="0.5" d="M0.333252 19.5C0.333252 10.3077 0.333252 5.71155 3.18805 2.8548C6.04675 0 10.641 0 19.8333 0C29.0256 0 33.6217 0 36.4765 2.8548C39.3333 5.7135 39.3333 10.3077 39.3333 19.5C39.3333 28.6923 39.3333 33.2885 36.4765 36.1433C33.6237 39 29.0256 39 19.8333 39C10.641 39 6.0448 39 3.18805 36.1433C0.333252 33.2904 0.333252 28.6923 0.333252 19.5Z" fill="#615DFF"/>
<path d="M3.19 36.1432C6.0448 39 10.641 39 19.8333 39C29.0275 39 33.6237 39 36.4785 36.1432C39.1246 33.4971 39.3196 29.3572 39.3333 21.45H33.1713C31.4065 21.45 30.5232 21.45 29.749 21.8068C28.9729 22.1637 28.3977 22.8345 27.2491 24.1741L26.0694 25.5508C24.9189 26.8905 24.3456 27.5613 23.5695 27.9181C22.7934 28.275 21.912 28.275 20.1472 28.275H19.5213C17.7565 28.275 16.8732 28.275 16.0971 27.9181C15.3229 27.5613 14.7477 26.8905 13.5991 25.5508L12.4174 24.1741C11.2689 22.8345 10.6956 22.1637 9.91945 21.8068C9.14335 21.45 8.26195 21.45 6.49525 21.45H0.333252C0.346902 29.3572 0.541902 33.4971 3.19 36.1432ZM12.0333 8.28748C11.6454 8.28748 11.2734 8.44156 10.9991 8.71583C10.7248 8.9901 10.5708 9.3621 10.5708 9.74998C10.5708 10.1379 10.7248 10.5098 10.9991 10.7841C11.2734 11.0584 11.6454 11.2125 12.0333 11.2125H27.6333C28.0211 11.2125 28.3931 11.0584 28.6674 10.7841C28.9417 10.5098 29.0958 10.1379 29.0958 9.74998C29.0958 9.3621 28.9417 8.9901 28.6674 8.71583C28.3931 8.44156 28.0211 8.28748 27.6333 8.28748H12.0333ZM15.9333 15.1125C15.5454 15.1125 15.1734 15.2666 14.8991 15.5408C14.6248 15.8151 14.4708 16.1871 14.4708 16.575C14.4708 16.9629 14.6248 17.3348 14.8991 17.6091C15.1734 17.8834 15.5454 18.0375 15.9333 18.0375H23.7333C24.1211 18.0375 24.4931 17.8834 24.7674 17.6091C25.0417 17.3348 25.1958 16.9629 25.1958 16.575C25.1958 16.1871 25.0417 15.8151 24.7674 15.5408C24.4931 15.2666 24.1211 15.1125 23.7333 15.1125H15.9333Z" fill="#615DFF"/>
</svg>
